# xmcd
#
# Track frame offsets:
#	150
#	4995
#	21782
#	60259
#	86116
#	110906
#	152694
#	176336
#	203461
#	229819
#	269127
#	296150
#
# Disc length: 4446 seconds
#
# Revision: 1
# Processed by: cddbd v1.5.1PL2 Copyright (c) Steve Scherf et al.
# Submitted via: EasyCDDAExtractor 9.0.0.1
#
DISCID=a4115c0c
DTITLE=Metallica - SBC Park San Fransisco 13-11-05
DYEAR=2005
DGENRE=Hard Rock
TTITLE0=Ecstasy Of Gold
TTITLE1=Orion
TTITLE2=Master Of Puppets
TTITLE3=No Leaf Clover
TTITLE4=King Nothing
TTITLE5=Fade To Black
TTITLE6=I Disappear
TTITLE7=Turn The Page
TTITLE8=Sad But True
TTITLE9=One
TTITLE10=Nothing Else Matters
TTITLE11=Enter Sandman
EXTD=
EXTT0=
EXTT1=
EXTT2=
EXTT3=
EXTT4=
EXTT5=
EXTT6=
EXTT7=
EXTT8=
EXTT9=
EXTT10=
EXTT11=
PLAYORDER=
